  0
SECTION
  2
HEADER
  9
$ACADVER
  1
AC1018
  9
$HANDSEED
  5
FFFFFFFF
  9
$ANGBASE
  50
0.0
  9
$ANGDIR
  70
1
  9
$MEASUREMENT
  70
1
  9
$INSUNITS
  70
4
  0
ENDSEC
  0
SECTION
  2
TABLES
  0
TABLE
  2
APPID
  5
1
330
0
100
AcDbSymbolTable
 70
1
  0
APPID
  5
2
330
1
100
AcDbSymbolTableRecord
100
AcDbRegAppTableRecord
  2
ACAD
 70
0
  0
ENDTAB
  0
TABLE
  2
LTYPE
  5
3
330
0
100
AcDbSymbolTable
 70
6
  0
LTYPE
  5
4
330
3
100
AcDbSymbolTableRecord
100
AcDbLinetypeTableRecord
  2
ByBlock
 70
0
  3

 72
65
 73
0
 40
0
  0
LTYPE
  5
5
330
3
100
AcDbSymbolTableRecord
100
AcDbLinetypeTableRecord
  2
ByLayer
 70
0
  3

 72
65
 73
0
 40
0
  0
LTYPE
  5
6
330
3
100
AcDbSymbolTableRecord
100
AcDbLinetypeTableRecord
  2
CONTINUOUS
 70
0
  3
Solid line
 72
65
 73
0
 40
0
  0
LTYPE
  5
7
330
3
100
AcDbSymbolTableRecord
100
AcDbLinetypeTableRecord
  2
DASHDOT
 70
0
  3
Dash Dot ____ _ ____ _
 72
65
 73
4
 40
2
 49
1.25
 74
0
 49
-0.25
 74
0
 49
0.25
 74
0
 49
-0.25
 74
0
  0
LTYPE
  5
8
330
3
100
AcDbSymbolTableRecord
100
AcDbLinetypeTableRecord
  2
DASHED
 70
0
  3
Dashed __ __ __ __ __
 72
65
 73
2
 40
0.75
 49
0.5
 74
0
 49
-0.25
 74
0
  0
LTYPE
  5
9
330
3
100
AcDbSymbolTableRecord
100
AcDbLinetypeTableRecord
  2
DOTTED
 70
0
  3
Dotted .  .  .  .
 72
65
 73
2
 40
0.2
 49
0.0
 74
0
 49
-0.2
 74
0
  0
ENDTAB
  0
TABLE
  2
STYLE
  5
A
330
0
100
AcDbSymbolTable
 70
4
  0
STYLE
  5
B
330
A
100
AcDbSymbolTableRecord
100
AcDbTextStyleTableRecord
  2
KICAD
 70
0
 40
0
 41
1
 42
1
 50
0
 71
0
  3
isocp.shx
  0
STYLE
  5
C
330
A
100
AcDbSymbolTableRecord
100
AcDbTextStyleTableRecord
  2
KICADB
 70
0
 40
0
 41
1
 42
1
 50
0
 71
0
  3
isocp.shx
  0
STYLE
  5
D
330
A
100
AcDbSymbolTableRecord
100
AcDbTextStyleTableRecord
  2
KICADI
 70
0
 40
0
 41
1
 42
1
 50
15
 71
0
  3
isocp.shx
  0
STYLE
  5
E
330
A
100
AcDbSymbolTableRecord
100
AcDbTextStyleTableRecord
  2
KICADBI
 70
0
 40
0
 41
1
 42
1
 50
15
 71
0
  3
isocp.shx
  0
ENDTAB
  0
TABLE
  2
LAYER
  5
F
330
0
100
AcDbSymbolTable
 70
2
  0
LAYER
  5
12
330
F
100
AcDbSymbolTableRecord
100
AcDbLayerTableRecord
  2
0
 70
0
 62
7
  6
CONTINUOUS
390
10
  0
LAYER
  5
13
330
F
100
AcDbSymbolTableRecord
100
AcDbLayerTableRecord
  2
Plate.Cuts
 70
0
 62
9
420
12763842
  6
CONTINUOUS
390
10
  0
ENDTAB
  0
TABLE
  2
VPORT
  5
14
330
0
100
AcDbSymbolTable
 70
0
  0
ENDTAB
  0
TABLE
  2
VIEW
  5
15
330
0
100
AcDbSymbolTable
 70
0
  0
ENDTAB
  0
TABLE
  2
UCS
  5
16
330
0
100
AcDbSymbolTable
 70
0
  0
ENDTAB
  0
TABLE
  2
DIMSTYLE
  5
17
330
0
100
AcDbSymbolTable
 70
1
100
AcDbDimStyleTable
 71
0
  0
DIMSTYLE
105
18
330
17
100
AcDbSymbolTableRecord
100
AcDbDimStyleTableRecord
  2
Standard
 70
0
  0
ENDTAB
  0
TABLE
  2
BLOCK_RECORD
  5
19
330
0
100
AcDbSymbolTable
 70
3
  0
BLOCK_RECORD
  5
1A
330
19
100
AcDbSymbolTableRecord
100
AcDbBlockTableRecord
  2
*Model_Space
340
1D
 70
0
280
1
281
0
  0
BLOCK_RECORD
  5
1B
330
19
100
AcDbSymbolTableRecord
100
AcDbBlockTableRecord
  2
*Paper_Space
340
1E
 70
0
280
1
281
0
  0
BLOCK_RECORD
  5
1C
330
19
100
AcDbSymbolTableRecord
100
AcDbBlockTableRecord
  2
*Paper_Space0
340
1F
 70
0
280
1
281
0
  0
ENDTAB
  0
ENDSEC
  0
SECTION
  2
BLOCKS
  0
BLOCK
  5
22
330
1A
100
AcDbEntity
  8
0
100
AcDbBlockBegin
  2
*Model_Space
 70
0
 10
0.0
 20
0.0
 30
0.0
  3
*Model_Space
  1

  0
ENDBLK
  5
23
330
1A
100
AcDbEntity
  8
0
100
AcDbBlockEnd
  0
BLOCK
  5
24
330
1B
100
AcDbEntity
 67
1
  8
0
100
AcDbBlockBegin
  2
*Paper_Space
 70
0
 10
0.0
 20
0.0
 30
0.0
  3
*Paper_Space
  1

  0
ENDBLK
  5
25
330
1B
100
AcDbEntity
 67
1
  8
0
100
AcDbBlockEnd
  0
BLOCK
  5
26
330
1C
100
AcDbEntity
 67
1
  8
0
100
AcDbBlockBegin
  2
*Paper_Space0
 70
0
 10
0.0
 20
0.0
 30
0.0
  3
*Paper_Space0
  1

  0
ENDBLK
  5
27
330
1C
100
AcDbEntity
 67
1
  8
0
100
AcDbBlockEnd
  0
ENDSEC
  0
SECTION
  2
ENTITIES
  0
LINE
  5
28
330
1A
100
AcDbEntity
  8
Plate.Cuts
  6
CONTINUOUS
100
AcDbLine
 10
50.
 20
-69.
 30
0
 11
250.5
 21
-69.
 31
0
  0
LINE
  5
29
330
1A
100
AcDbEntity
  8
Plate.Cuts
  6
CONTINUOUS
100
AcDbLine
 10
50.
 20
-174.25
 30
0
 11
50.
 21
-69.
 31
0
  0
LINE
  5
2A
330
1A
100
AcDbEntity
  8
Plate.Cuts
  6
CONTINUOUS
100
AcDbLine
 10
57.5249999999999986
 20
-76.5249999999999915
 30
0
 11
71.5249999999999915
 21
-76.5249999999999915
 31
0
  0
LINE
  5
2B
330
1A
100
AcDbEntity
  8
Plate.Cuts
  6
CONTINUOUS
100
AcDbLine
 10
57.5249999999999986
 20
-90.5249999999999915
 30
0
 11
57.5249999999999986
 21
-76.5249999999999915
 31
0
  0
LINE
  5
2C
330
1A
100
AcDbEntity
  8
Plate.Cuts
  6
CONTINUOUS
100
AcDbLine
 10
57.5249999999999986
 20
-95.5749999999999886
 30
0
 11
71.5249999999999915
 21
-95.5749999999999886
 31
0
  0
LINE
  5
2D
330
1A
100
AcDbEntity
  8
Plate.Cuts
  6
CONTINUOUS
100
AcDbLine
 10
57.5249999999999986
 20
-109.5749999999999886
 30
0
 11
57.5249999999999986
 21
-95.5749999999999886
 31
0
  0
LINE
  5
2E
330
1A
100
AcDbEntity
  8
Plate.Cuts
  6
CONTINUOUS
100
AcDbLine
 10
57.5249999999999986
 20
-114.625
 30
0
 11
71.5249999999999915
 21
-114.625
 31
0
  0
LINE
  5
2F
330
1A
100
AcDbEntity
  8
Plate.Cuts
  6
CONTINUOUS
100
AcDbLine
 10
57.5249999999999986
 20
-128.625
 30
0
 11
57.5249999999999986
 21
-114.625
 31
0
  0
LINE
  5
30
330
1A
100
AcDbEntity
  8
Plate.Cuts
  6
CONTINUOUS
100
AcDbLine
 10
57.5249999999999986
 20
-133.6749999999999829
 30
0
 11
71.5249999999999915
 21
-133.6749999999999829
 31
0
  0
LINE
  5
31
330
1A
100
AcDbEntity
  8
Plate.Cuts
  6
CONTINUOUS
100
AcDbLine
 10
57.5249999999999986
 20
-147.6749999999999829
 30
0
 11
57.5249999999999986
 21
-133.6749999999999829
 31
0
  0
LINE
  5
32
330
1A
100
AcDbEntity
  8
Plate.Cuts
  6
CONTINUOUS
100
AcDbLine
 10
57.5249999999999986
 20
-152.7249999999999943
 30
0
 11
71.5249999999999915
 21
-152.7249999999999943
 31
0
  0
LINE
  5
33
330
1A
100
AcDbEntity
  8
Plate.Cuts
  6
CONTINUOUS
100
AcDbLine
 10
57.5249999999999986
 20
-166.7249999999999943
 30
0
 11
57.5249999999999986
 21
-152.7249999999999943
 31
0
  0
LINE
  5
34
330
1A
100
AcDbEntity
  8
Plate.Cuts
  6
CONTINUOUS
100
AcDbLine
 10
71.5249999999999915
 20
-76.5249999999999915
 30
0
 11
71.5249999999999915
 21
-90.5249999999999915
 31
0
  0
LINE
  5
35
330
1A
100
AcDbEntity
  8
Plate.Cuts
  6
CONTINUOUS
100
AcDbLine
 10
71.5249999999999915
 20
-90.5249999999999915
 30
0
 11
57.5249999999999986
 21
-90.5249999999999915
 31
0
  0
LINE
  5
36
330
1A
100
AcDbEntity
  8
Plate.Cuts
  6
CONTINUOUS
100
AcDbLine
 10
71.5249999999999915
 20
-95.5749999999999886
 30
0
 11
71.5249999999999915
 21
-109.5749999999999886
 31
0
  0
LINE
  5
37
330
1A
100
AcDbEntity
  8
Plate.Cuts
  6
CONTINUOUS
100
AcDbLine
 10
71.5249999999999915
 20
-109.5749999999999886
 30
0
 11
57.5249999999999986
 21
-109.5749999999999886
 31
0
  0
LINE
  5
38
330
1A
100
AcDbEntity
  8
Plate.Cuts
  6
CONTINUOUS
100
AcDbLine
 10
71.5249999999999915
 20
-114.625
 30
0
 11
71.5249999999999915
 21
-128.625
 31
0
  0
LINE
  5
39
330
1A
100
AcDbEntity
  8
Plate.Cuts
  6
CONTINUOUS
100
AcDbLine
 10
71.5249999999999915
 20
-128.625
 30
0
 11
57.5249999999999986
 21
-128.625
 31
0
  0
LINE
  5
3A
330
1A
100
AcDbEntity
  8
Plate.Cuts
  6
CONTINUOUS
100
AcDbLine
 10
71.5249999999999915
 20
-133.6749999999999829
 30
0
 11
71.5249999999999915
 21
-147.6749999999999829
 31
0
  0
LINE
  5
3B
330
1A
100
AcDbEntity
  8
Plate.Cuts
  6
CONTINUOUS
100
AcDbLine
 10
71.5249999999999915
 20
-147.6749999999999829
 30
0
 11
57.5249999999999986
 21
-147.6749999999999829
 31
0
  0
LINE
  5
3C
330
1A
100
AcDbEntity
  8
Plate.Cuts
  6
CONTINUOUS
100
AcDbLine
 10
71.5249999999999915
 20
-152.7249999999999943
 30
0
 11
71.5249999999999915
 21
-166.7249999999999943
 31
0
  0
LINE
  5
3D
330
1A
100
AcDbEntity
  8
Plate.Cuts
  6
CONTINUOUS
100
AcDbLine
 10
71.5249999999999915
 20
-166.7249999999999943
 30
0
 11
57.5249999999999986
 21
-166.7249999999999943
 31
0
  0
LINE
  5
3E
330
1A
100
AcDbEntity
  8
Plate.Cuts
  6
CONTINUOUS
100
AcDbLine
 10
76.5750000000000028
 20
-76.5249999999999915
 30
0
 11
90.5750000000000028
 21
-76.5249999999999915
 31
0
  0
LINE
  5
3F
330
1A
100
AcDbEntity
  8
Plate.Cuts
  6
CONTINUOUS
100
AcDbLine
 10
76.5750000000000028
 20
-90.5249999999999915
 30
0
 11
76.5750000000000028
 21
-76.5249999999999915
 31
0
  0
LINE
  5
40
330
1A
100
AcDbEntity
  8
Plate.Cuts
  6
CONTINUOUS
100
AcDbLine
 10
76.5750000000000028
 20
-95.5749999999999886
 30
0
 11
90.5750000000000028
 21
-95.5749999999999886
 31
0
  0
LINE
  5
41
330
1A
100
AcDbEntity
  8
Plate.Cuts
  6
CONTINUOUS
100
AcDbLine
 10
76.5750000000000028
 20
-109.5749999999999886
 30
0
 11
76.5750000000000028
 21
-95.5749999999999886
 31
0
  0
LINE
  5
42
330
1A
100
AcDbEntity
  8
Plate.Cuts
  6
CONTINUOUS
100
AcDbLine
 10
76.5750000000000028
 20
-114.625
 30
0
 11
90.5750000000000028
 21
-114.625
 31
0
  0
LINE
  5
43
330
1A
100
AcDbEntity
  8
Plate.Cuts
  6
CONTINUOUS
100
AcDbLine
 10
76.5750000000000028
 20
-128.625
 30
0
 11
76.5750000000000028
 21
-114.625
 31
0
  0
LINE
  5
44
330
1A
100
AcDbEntity
  8
Plate.Cuts
  6
CONTINUOUS
100
AcDbLine
 10
76.5750000000000028
 20
-133.6749999999999829
 30
0
 11
90.5750000000000028
 21
-133.6749999999999829
 31
0
  0
LINE
  5
45
330
1A
100
AcDbEntity
  8
Plate.Cuts
  6
CONTINUOUS
100
AcDbLine
 10
76.5750000000000028
 20
-147.6749999999999829
 30
0
 11
76.5750000000000028
 21
-133.6749999999999829
 31
0
  0
LINE
  5
46
330
1A
100
AcDbEntity
  8
Plate.Cuts
  6
CONTINUOUS
100
AcDbLine
 10
76.5750000000000028
 20
-152.7249999999999943
 30
0
 11
90.5750000000000028
 21
-152.7249999999999943
 31
0
  0
LINE
  5
47
330
1A
100
AcDbEntity
  8
Plate.Cuts
  6
CONTINUOUS
100
AcDbLine
 10
76.5750000000000028
 20
-166.7249999999999943
 30
0
 11
76.5750000000000028
 21
-152.7249999999999943
 31
0
  0
LINE
  5
48
330
1A
100
AcDbEntity
  8
Plate.Cuts
  6
CONTINUOUS
100
AcDbLine
 10
90.5750000000000028
 20
-76.5249999999999915
 30
0
 11
90.5750000000000028
 21
-90.5249999999999915
 31
0
  0
LINE
  5
49
330
1A
100
AcDbEntity
  8
Plate.Cuts
  6
CONTINUOUS
100
AcDbLine
 10
90.5750000000000028
 20
-90.5249999999999915
 30
0
 11
76.5750000000000028
 21
-90.5249999999999915
 31
0
  0
LINE
  5
4A
330
1A
100
AcDbEntity
  8
Plate.Cuts
  6
CONTINUOUS
100
AcDbLine
 10
90.5750000000000028
 20
-95.5749999999999886
 30
0
 11
90.5750000000000028
 21
-109.5749999999999886
 31
0
  0
LINE
  5
4B
330
1A
100
AcDbEntity
  8
Plate.Cuts
  6
CONTINUOUS
100
AcDbLine
 10
90.5750000000000028
 20
-109.5749999999999886
 30
0
 11
76.5750000000000028
 21
-109.5749999999999886
 31
0
  0
LINE
  5
4C
330
1A
100
AcDbEntity
  8
Plate.Cuts
  6
CONTINUOUS
100
AcDbLine
 10
90.5750000000000028
 20
-114.625
 30
0
 11
90.5750000000000028
 21
-128.625
 31
0
  0
LINE
  5
4D
330
1A
100
AcDbEntity
  8
Plate.Cuts
  6
CONTINUOUS
100
AcDbLine
 10
90.5750000000000028
 20
-128.625
 30
0
 11
76.5750000000000028
 21
-128.625
 31
0
  0
LINE
  5
4E
330
1A
100
AcDbEntity
  8
Plate.Cuts
  6
CONTINUOUS
100
AcDbLine
 10
90.5750000000000028
 20
-133.6749999999999829
 30
0
 11
90.5750000000000028
 21
-147.6749999999999829
 31
0
  0
LINE
  5
4F
330
1A
100
AcDbEntity
  8
Plate.Cuts
  6
CONTINUOUS
100
AcDbLine
 10
90.5750000000000028
 20
-147.6749999999999829
 30
0
 11
76.5750000000000028
 21
-147.6749999999999829
 31
0
  0
LINE
  5
50
330
1A
100
AcDbEntity
  8
Plate.Cuts
  6
CONTINUOUS
100
AcDbLine
 10
90.5750000000000028
 20
-152.7249999999999943
 30
0
 11
90.5750000000000028
 21
-166.7249999999999943
 31
0
  0
LINE
  5
51
330
1A
100
AcDbEntity
  8
Plate.Cuts
  6
CONTINUOUS
100
AcDbLine
 10
90.5750000000000028
 20
-166.7249999999999943
 30
0
 11
76.5750000000000028
 21
-166.7249999999999943
 31
0
  0
LINE
  5
52
330
1A
100
AcDbEntity
  8
Plate.Cuts
  6
CONTINUOUS
100
AcDbLine
 10
95.625
 20
-76.5249999999999915
 30
0
 11
109.625
 21
-76.5249999999999915
 31
0
  0
LINE
  5
53
330
1A
100
AcDbEntity
  8
Plate.Cuts
  6
CONTINUOUS
100
AcDbLine
 10
95.625
 20
-90.5249999999999915
 30
0
 11
95.625
 21
-76.5249999999999915
 31
0
  0
LINE
  5
54
330
1A
100
AcDbEntity
  8
Plate.Cuts
  6
CONTINUOUS
100
AcDbLine
 10
95.625
 20
-95.5749999999999886
 30
0
 11
109.625
 21
-95.5749999999999886
 31
0
  0
LINE
  5
55
330
1A
100
AcDbEntity
  8
Plate.Cuts
  6
CONTINUOUS
100
AcDbLine
 10
95.625
 20
-109.5749999999999886
 30
0
 11
95.625
 21
-95.5749999999999886
 31
0
  0
LINE
  5
56
330
1A
100
AcDbEntity
  8
Plate.Cuts
  6
CONTINUOUS
100
AcDbLine
 10
95.625
 20
-114.625
 30
0
 11
109.625
 21
-114.625
 31
0
  0
LINE
  5
57
330
1A
100
AcDbEntity
  8
Plate.Cuts
  6
CONTINUOUS
100
AcDbLine
 10
95.625
 20
-128.625
 30
0
 11
95.625
 21
-114.625
 31
0
  0
LINE
  5
58
330
1A
100
AcDbEntity
  8
Plate.Cuts
  6
CONTINUOUS
100
AcDbLine
 10
95.625
 20
-133.6749999999999829
 30
0
 11
109.625
 21
-133.6749999999999829
 31
0
  0
LINE
  5
59
330
1A
100
AcDbEntity
  8
Plate.Cuts
  6
CONTINUOUS
100
AcDbLine
 10
95.625
 20
-147.6749999999999829
 30
0
 11
95.625
 21
-133.6749999999999829
 31
0
  0
LINE
  5
5A
330
1A
100
AcDbEntity
  8
Plate.Cuts
  6
CONTINUOUS
100
AcDbLine
 10
95.625
 20
-152.7249999999999943
 30
0
 11
109.625
 21
-152.7249999999999943
 31
0
  0
LINE
  5
5B
330
1A
100
AcDbEntity
  8
Plate.Cuts
  6
CONTINUOUS
100
AcDbLine
 10
95.625
 20
-166.7249999999999943
 30
0
 11
95.625
 21
-152.7249999999999943
 31
0
  0
LINE
  5
5C
330
1A
100
AcDbEntity
  8
Plate.Cuts
  6
CONTINUOUS
100
AcDbLine
 10
109.625
 20
-76.5249999999999915
 30
0
 11
109.625
 21
-90.5249999999999915
 31
0
  0
LINE
  5
5D
330
1A
100
AcDbEntity
  8
Plate.Cuts
  6
CONTINUOUS
100
AcDbLine
 10
109.625
 20
-90.5249999999999915
 30
0
 11
95.625
 21
-90.5249999999999915
 31
0
  0
LINE
  5
5E
330
1A
100
AcDbEntity
  8
Plate.Cuts
  6
CONTINUOUS
100
AcDbLine
 10
109.625
 20
-95.5749999999999886
 30
0
 11
109.625
 21
-109.5749999999999886
 31
0
  0
LINE
  5
5F
330
1A
100
AcDbEntity
  8
Plate.Cuts
  6
CONTINUOUS
100
AcDbLine
 10
109.625
 20
-109.5749999999999886
 30
0
 11
95.625
 21
-109.5749999999999886
 31
0
  0
LINE
  5
60
330
1A
100
AcDbEntity
  8
Plate.Cuts
  6
CONTINUOUS
100
AcDbLine
 10
109.625
 20
-114.625
 30
0
 11
109.625
 21
-128.625
 31
0
  0
LINE
  5
61
330
1A
100
AcDbEntity
  8
Plate.Cuts
  6
CONTINUOUS
100
AcDbLine
 10
109.625
 20
-128.625
 30
0
 11
95.625
 21
-128.625
 31
0
  0
LINE
  5
62
330
1A
100
AcDbEntity
  8
Plate.Cuts
  6
CONTINUOUS
100
AcDbLine
 10
109.625
 20
-133.6749999999999829
 30
0
 11
109.625
 21
-147.6749999999999829
 31
0
  0
LINE
  5
63
330
1A
100
AcDbEntity
  8
Plate.Cuts
  6
CONTINUOUS
100
AcDbLine
 10
109.625
 20
-147.6749999999999829
 30
0
 11
95.625
 21
-147.6749999999999829
 31
0
  0
LINE
  5
64
330
1A
100
AcDbEntity
  8
Plate.Cuts
  6
CONTINUOUS
100
AcDbLine
 10
109.625
 20
-152.7249999999999943
 30
0
 11
109.625
 21
-166.7249999999999943
 31
0
  0
LINE
  5
65
330
1A
100
AcDbEntity
  8
Plate.Cuts
  6
CONTINUOUS
100
AcDbLine
 10
109.625
 20
-166.7249999999999943
 30
0
 11
95.625
 21
-166.7249999999999943
 31
0
  0
LINE
  5
66
330
1A
100
AcDbEntity
  8
Plate.Cuts
  6
CONTINUOUS
100
AcDbLine
 10
114.6749999999999972
 20
-76.5249999999999915
 30
0
 11
128.6749999999999829
 21
-76.5249999999999915
 31
0
  0
LINE
  5
67
330
1A
100
AcDbEntity
  8
Plate.Cuts
  6
CONTINUOUS
100
AcDbLine
 10
114.6749999999999972
 20
-90.5249999999999915
 30
0
 11
114.6749999999999972
 21
-76.5249999999999915
 31
0
  0
LINE
  5
68
330
1A
100
AcDbEntity
  8
Plate.Cuts
  6
CONTINUOUS
100
AcDbLine
 10
114.6749999999999972
 20
-95.5749999999999886
 30
0
 11
128.6749999999999829
 21
-95.5749999999999886
 31
0
  0
LINE
  5
69
330
1A
100
AcDbEntity
  8
Plate.Cuts
  6
CONTINUOUS
100
AcDbLine
 10
114.6749999999999972
 20
-109.5749999999999886
 30
0
 11
114.6749999999999972
 21
-95.5749999999999886
 31
0
  0
LINE
  5
6A
330
1A
100
AcDbEntity
  8
Plate.Cuts
  6
CONTINUOUS
100
AcDbLine
 10
114.6749999999999972
 20
-114.625
 30
0
 11
128.6749999999999829
 21
-114.625
 31
0
  0
LINE
  5
6B
330
1A
100
AcDbEntity
  8
Plate.Cuts
  6
CONTINUOUS
100
AcDbLine
 10
114.6749999999999972
 20
-128.625
 30
0
 11
114.6749999999999972
 21
-114.625
 31
0
  0
LINE
  5
6C
330
1A
100
AcDbEntity
  8
Plate.Cuts
  6
CONTINUOUS
100
AcDbLine
 10
114.6749999999999972
 20
-133.6749999999999829
 30
0
 11
128.6749999999999829
 21
-133.6749999999999829
 31
0
  0
LINE
  5
6D
330
1A
100
AcDbEntity
  8
Plate.Cuts
  6
CONTINUOUS
100
AcDbLine
 10
114.6749999999999972
 20
-147.6749999999999829
 30
0
 11
114.6749999999999972
 21
-133.6749999999999829
 31
0
  0
LINE
  5
6E
330
1A
100
AcDbEntity
  8
Plate.Cuts
  6
CONTINUOUS
100
AcDbLine
 10
114.6749999999999972
 20
-152.7249999999999943
 30
0
 11
128.6749999999999829
 21
-152.7249999999999943
 31
0
  0
LINE
  5
6F
330
1A
100
AcDbEntity
  8
Plate.Cuts
  6
CONTINUOUS
100
AcDbLine
 10
114.6749999999999972
 20
-166.7249999999999943
 30
0
 11
114.6749999999999972
 21
-152.7249999999999943
 31
0
  0
LINE
  5
70
330
1A
100
AcDbEntity
  8
Plate.Cuts
  6
CONTINUOUS
100
AcDbLine
 10
128.6749999999999829
 20
-76.5249999999999915
 30
0
 11
128.6749999999999829
 21
-90.5249999999999915
 31
0
  0
LINE
  5
71
330
1A
100
AcDbEntity
  8
Plate.Cuts
  6
CONTINUOUS
100
AcDbLine
 10
128.6749999999999829
 20
-90.5249999999999915
 30
0
 11
114.6749999999999972
 21
-90.5249999999999915
 31
0
  0
LINE
  5
72
330
1A
100
AcDbEntity
  8
Plate.Cuts
  6
CONTINUOUS
100
AcDbLine
 10
128.6749999999999829
 20
-95.5749999999999886
 30
0
 11
128.6749999999999829
 21
-109.5749999999999886
 31
0
  0
LINE
  5
73
330
1A
100
AcDbEntity
  8
Plate.Cuts
  6
CONTINUOUS
100
AcDbLine
 10
128.6749999999999829
 20
-109.5749999999999886
 30
0
 11
114.6749999999999972
 21
-109.5749999999999886
 31
0
  0
LINE
  5
74
330
1A
100
AcDbEntity
  8
Plate.Cuts
  6
CONTINUOUS
100
AcDbLine
 10
128.6749999999999829
 20
-114.625
 30
0
 11
128.6749999999999829
 21
-128.625
 31
0
  0
LINE
  5
75
330
1A
100
AcDbEntity
  8
Plate.Cuts
  6
CONTINUOUS
100
AcDbLine
 10
128.6749999999999829
 20
-128.625
 30
0
 11
114.6749999999999972
 21
-128.625
 31
0
  0
LINE
  5
76
330
1A
100
AcDbEntity
  8
Plate.Cuts
  6
CONTINUOUS
100
AcDbLine
 10
128.6749999999999829
 20
-133.6749999999999829
 30
0
 11
128.6749999999999829
 21
-147.6749999999999829
 31
0
  0
LINE
  5
77
330
1A
100
AcDbEntity
  8
Plate.Cuts
  6
CONTINUOUS
100
AcDbLine
 10
128.6749999999999829
 20
-147.6749999999999829
 30
0
 11
114.6749999999999972
 21
-147.6749999999999829
 31
0
  0
LINE
  5
78
330
1A
100
AcDbEntity
  8
Plate.Cuts
  6
CONTINUOUS
100
AcDbLine
 10
128.6749999999999829
 20
-152.7249999999999943
 30
0
 11
128.6749999999999829
 21
-166.7249999999999943
 31
0
  0
LINE
  5
79
330
1A
100
AcDbEntity
  8
Plate.Cuts
  6
CONTINUOUS
100
AcDbLine
 10
128.6749999999999829
 20
-166.7249999999999943
 30
0
 11
114.6749999999999972
 21
-166.7249999999999943
 31
0
  0
LINE
  5
7A
330
1A
100
AcDbEntity
  8
Plate.Cuts
  6
CONTINUOUS
100
AcDbLine
 10
133.7249999999999943
 20
-76.5249999999999915
 30
0
 11
147.7249999999999943
 21
-76.5249999999999915
 31
0
  0
LINE
  5
7B
330
1A
100
AcDbEntity
  8
Plate.Cuts
  6
CONTINUOUS
100
AcDbLine
 10
133.7249999999999943
 20
-90.5249999999999915
 30
0
 11
133.7249999999999943
 21
-76.5249999999999915
 31
0
  0
LINE
  5
7C
330
1A
100
AcDbEntity
  8
Plate.Cuts
  6
CONTINUOUS
100
AcDbLine
 10
133.7249999999999943
 20
-95.5749999999999886
 30
0
 11
147.7249999999999943
 21
-95.5749999999999886
 31
0
  0
LINE
  5
7D
330
1A
100
AcDbEntity
  8
Plate.Cuts
  6
CONTINUOUS
100
AcDbLine
 10
133.7249999999999943
 20
-109.5749999999999886
 30
0
 11
133.7249999999999943
 21
-95.5749999999999886
 31
0
  0
LINE
  5
7E
330
1A
100
AcDbEntity
  8
Plate.Cuts
  6
CONTINUOUS
100
AcDbLine
 10
133.7249999999999943
 20
-114.625
 30
0
 11
147.7249999999999943
 21
-114.625
 31
0
  0
LINE
  5
7F
330
1A
100
AcDbEntity
  8
Plate.Cuts
  6
CONTINUOUS
100
AcDbLine
 10
133.7249999999999943
 20
-128.625
 30
0
 11
133.7249999999999943
 21
-114.625
 31
0
  0
LINE
  5
80
330
1A
100
AcDbEntity
  8
Plate.Cuts
  6
CONTINUOUS
100
AcDbLine
 10
133.7249999999999943
 20
-133.6749999999999829
 30
0
 11
147.7249999999999943
 21
-133.6749999999999829
 31
0
  0
LINE
  5
81
330
1A
100
AcDbEntity
  8
Plate.Cuts
  6
CONTINUOUS
100
AcDbLine
 10
133.7249999999999943
 20
-147.6749999999999829
 30
0
 11
133.7249999999999943
 21
-133.6749999999999829
 31
0
  0
LINE
  5
82
330
1A
100
AcDbEntity
  8
Plate.Cuts
  6
CONTINUOUS
100
AcDbLine
 10
133.7249999999999943
 20
-152.7249999999999943
 30
0
 11
147.7249999999999943
 21
-152.7249999999999943
 31
0
  0
LINE
  5
83
330
1A
100
AcDbEntity
  8
Plate.Cuts
  6
CONTINUOUS
100
AcDbLine
 10
133.7249999999999943
 20
-166.7249999999999943
 30
0
 11
133.7249999999999943
 21
-152.7249999999999943
 31
0
  0
LINE
  5
84
330
1A
100
AcDbEntity
  8
Plate.Cuts
  6
CONTINUOUS
100
AcDbLine
 10
147.7249999999999943
 20
-76.5249999999999915
 30
0
 11
147.7249999999999943
 21
-90.5249999999999915
 31
0
  0
LINE
  5
85
330
1A
100
AcDbEntity
  8
Plate.Cuts
  6
CONTINUOUS
100
AcDbLine
 10
147.7249999999999943
 20
-90.5249999999999915
 30
0
 11
133.7249999999999943
 21
-90.5249999999999915
 31
0
  0
LINE
  5
86
330
1A
100
AcDbEntity
  8
Plate.Cuts
  6
CONTINUOUS
100
AcDbLine
 10
147.7249999999999943
 20
-95.5749999999999886
 30
0
 11
147.7249999999999943
 21
-109.5749999999999886
 31
0
  0
LINE
  5
87
330
1A
100
AcDbEntity
  8
Plate.Cuts
  6
CONTINUOUS
100
AcDbLine
 10
147.7249999999999943
 20
-109.5749999999999886
 30
0
 11
133.7249999999999943
 21
-109.5749999999999886
 31
0
  0
LINE
  5
88
330
1A
100
AcDbEntity
  8
Plate.Cuts
  6
CONTINUOUS
100
AcDbLine
 10
147.7249999999999943
 20
-114.625
 30
0
 11
147.7249999999999943
 21
-128.625
 31
0
  0
LINE
  5
89
330
1A
100
AcDbEntity
  8
Plate.Cuts
  6
CONTINUOUS
100
AcDbLine
 10
147.7249999999999943
 20
-128.625
 30
0
 11
133.7249999999999943
 21
-128.625
 31
0
  0
LINE
  5
8A
330
1A
100
AcDbEntity
  8
Plate.Cuts
  6
CONTINUOUS
100
AcDbLine
 10
147.7249999999999943
 20
-133.6749999999999829
 30
0
 11
147.7249999999999943
 21
-147.6749999999999829
 31
0
  0
LINE
  5
8B
330
1A
100
AcDbEntity
  8
Plate.Cuts
  6
CONTINUOUS
100
AcDbLine
 10
147.7249999999999943
 20
-147.6749999999999829
 30
0
 11
133.7249999999999943
 21
-147.6749999999999829
 31
0
  0
LINE
  5
8C
330
1A
100
AcDbEntity
  8
Plate.Cuts
  6
CONTINUOUS
100
AcDbLine
 10
147.7249999999999943
 20
-152.7249999999999943
 30
0
 11
147.7249999999999943
 21
-166.7249999999999943
 31
0
  0
LINE
  5
8D
330
1A
100
AcDbEntity
  8
Plate.Cuts
  6
CONTINUOUS
100
AcDbLine
 10
147.7249999999999943
 20
-166.7249999999999943
 30
0
 11
133.7249999999999943
 21
-166.7249999999999943
 31
0
  0
LINE
  5
8E
330
1A
100
AcDbEntity
  8
Plate.Cuts
  6
CONTINUOUS
100
AcDbLine
 10
152.7750000000000057
 20
-76.5249999999999915
 30
0
 11
166.7750000000000057
 21
-76.5249999999999915
 31
0
  0
LINE
  5
8F
330
1A
100
AcDbEntity
  8
Plate.Cuts
  6
CONTINUOUS
100
AcDbLine
 10
152.7750000000000057
 20
-90.5249999999999915
 30
0
 11
152.7750000000000057
 21
-76.5249999999999915
 31
0
  0
LINE
  5
90
330
1A
100
AcDbEntity
  8
Plate.Cuts
  6
CONTINUOUS
100
AcDbLine
 10
152.7750000000000057
 20
-95.5749999999999886
 30
0
 11
166.7750000000000057
 21
-95.5749999999999886
 31
0
  0
LINE
  5
91
330
1A
100
AcDbEntity
  8
Plate.Cuts
  6
CONTINUOUS
100
AcDbLine
 10
152.7750000000000057
 20
-109.5749999999999886
 30
0
 11
152.7750000000000057
 21
-95.5749999999999886
 31
0
  0
LINE
  5
92
330
1A
100
AcDbEntity
  8
Plate.Cuts
  6
CONTINUOUS
100
AcDbLine
 10
152.7750000000000057
 20
-114.625
 30
0
 11
166.7750000000000057
 21
-114.625
 31
0
  0
LINE
  5
93
330
1A
100
AcDbEntity
  8
Plate.Cuts
  6
CONTINUOUS
100
AcDbLine
 10
152.7750000000000057
 20
-128.625
 30
0
 11
152.7750000000000057
 21
-114.625
 31
0
  0
LINE
  5
94
330
1A
100
AcDbEntity
  8
Plate.Cuts
  6
CONTINUOUS
100
AcDbLine
 10
152.7750000000000057
 20
-143.1999999999999886
 30
0
 11
155.0449999999999875
 21
-143.1999999999999886
 31
0
  0
LINE
  5
95
330
1A
100
AcDbEntity
  8
Plate.Cuts
  6
CONTINUOUS
100
AcDbLine
 10
152.7750000000000057
 20
-157.1999999999999886
 30
0
 11
152.7750000000000057
 21
-143.1999999999999886
 31
0
  0
LINE
  5
96
330
1A
100
AcDbEntity
  8
Plate.Cuts
  6
CONTINUOUS
100
AcDbLine
 10
154.2450000000000045
 20
-134.9749999999999943
 30
0
 11
157.4749999999999943
 21
-134.9749999999999943
 31
0
  0
LINE
  5
97
330
1A
100
AcDbEntity
  8
Plate.Cuts
  6
CONTINUOUS
100
AcDbLine
 10
154.2450000000000045
 20
-141.625
 30
0
 11
154.2450000000000045
 21
-134.9749999999999943
 31
0
  0
LINE
  5
98
330
1A
100
AcDbEntity
  8
Plate.Cuts
  6
CONTINUOUS
100
AcDbLine
 10
154.2450000000000045
 20
-158.7750000000000057
 30
0
 11
155.0449999999999875
 21
-158.7750000000000057
 31
0
  0
LINE
  5
99
330
1A
100
AcDbEntity
  8
Plate.Cuts
  6
CONTINUOUS
100
AcDbLine
 10
154.2450000000000045
 20
-165.4249999999999829
 30
0
 11
154.2450000000000045
 21
-158.7750000000000057
 31
0
  0
LINE
  5
9A
330
1A
100
AcDbEntity
  8
Plate.Cuts
  6
CONTINUOUS
100
AcDbLine
 10
155.0449999999999875
 20
-141.625
 30
0
 11
154.2450000000000045
 21
-141.625
 31
0
  0
LINE
  5
9B
330
1A
100
AcDbEntity
  8
Plate.Cuts
  6
CONTINUOUS
100
AcDbLine
 10
155.0449999999999875
 20
-143.1999999999999886
 30
0
 11
155.0449999999999875
 21
-141.625
 31
0
  0
LINE
  5
9C
330
1A
100
AcDbEntity
  8
Plate.Cuts
  6
CONTINUOUS
100
AcDbLine
 10
155.0449999999999875
 20
-157.1999999999999886
 30
0
 11
152.7750000000000057
 21
-157.1999999999999886
 31
0
  0
LINE
  5
9D
330
1A
100
AcDbEntity
  8
Plate.Cuts
  6
CONTINUOUS
100
AcDbLine
 10
155.0449999999999875
 20
-158.7750000000000057
 30
0
 11
155.0449999999999875
 21
-157.1999999999999886
 31
0
  0
LINE
  5
9E
330
1A
100
AcDbEntity
  8
Plate.Cuts
  6
CONTINUOUS
100
AcDbLine
 10
157.4749999999999943
 20
-134.0999999999999943
 30
0
 11
160.2750000000000057
 21
-134.0999999999999943
 31
0
  0
LINE
  5
9F
330
1A
100
AcDbEntity
  8
Plate.Cuts
  6
CONTINUOUS
100
AcDbLine
 10
157.4749999999999943
 20
-134.9749999999999943
 30
0
 11
157.4749999999999943
 21
-134.0999999999999943
 31
0
  0
LINE
  5
A0
330
1A
100
AcDbEntity
  8
Plate.Cuts
  6
CONTINUOUS
100
AcDbLine
 10
157.4749999999999943
 20
-165.4249999999999829
 30
0
 11
154.2450000000000045
 21
-165.4249999999999829
 31
0
  0
LINE
  5
A1
330
1A
100
AcDbEntity
  8
Plate.Cuts
  6
CONTINUOUS
100
AcDbLine
 10
157.4749999999999943
 20
-166.2999999999999829
 30
0
 11
157.4749999999999943
 21
-165.4249999999999829
 31
0
  0
LINE
  5
A2
330
1A
100
AcDbEntity
  8
Plate.Cuts
  6
CONTINUOUS
100
AcDbLine
 10
160.2750000000000057
 20
-134.0999999999999943
 30
0
 11
160.2750000000000057
 21
-134.9749999999999943
 31
0
  0
LINE
  5
A3
330
1A
100
AcDbEntity
  8
Plate.Cuts
  6
CONTINUOUS
100
AcDbLine
 10
160.2750000000000057
 20
-134.9749999999999943
 30
0
 11
166.5449999999999875
 21
-134.9749999999999943
 31
0
  0
LINE
  5
A4
330
1A
100
AcDbEntity
  8
Plate.Cuts
  6
CONTINUOUS
100
AcDbLine
 10
160.2750000000000057
 20
-165.4249999999999829
 30
0
 11
160.2750000000000057
 21
-166.2999999999999829
 31
0
  0
LINE
  5
A5
330
1A
100
AcDbEntity
  8
Plate.Cuts
  6
CONTINUOUS
100
AcDbLine
 10
160.2750000000000057
 20
-166.2999999999999829
 30
0
 11
157.4749999999999943
 21
-166.2999999999999829
 31
0
  0
LINE
  5
A6
330
1A
100
AcDbEntity
  8
Plate.Cuts
  6
CONTINUOUS
100
AcDbLine
 10
165.7450000000000045
 20
-141.625
 30
0
 11
165.7450000000000045
 21
-143.1999999999999886
 31
0
  0
LINE
  5
A7
330
1A
100
AcDbEntity
  8
Plate.Cuts
  6
CONTINUOUS
100
AcDbLine
 10
165.7450000000000045
 20
-143.1999999999999886
 30
0
 11
166.7750000000000057
 21
-143.1999999999999886
 31
0
  0
LINE
  5
A8
330
1A
100
AcDbEntity
  8
Plate.Cuts
  6
CONTINUOUS
100
AcDbLine
 10
165.7450000000000045
 20
-157.1999999999999886
 30
0
 11
165.7450000000000045
 21
-158.7750000000000057
 31
0
  0
LINE
  5
A9
330
1A
100
AcDbEntity
  8
Plate.Cuts
  6
CONTINUOUS
100
AcDbLine
 10
165.7450000000000045
 20
-158.7750000000000057
 30
0
 11
166.5449999999999875
 21
-158.7750000000000057
 31
0
  0
LINE
  5
AA
330
1A
100
AcDbEntity
  8
Plate.Cuts
  6
CONTINUOUS
100
AcDbLine
 10
166.5449999999999875
 20
-134.9749999999999943
 30
0
 11
166.5449999999999875
 21
-136.7999999999999829
 31
0
  0
LINE
  5
AB
330
1A
100
AcDbEntity
  8
Plate.Cuts
  6
CONTINUOUS
100
AcDbLine
 10
166.5449999999999875
 20
-136.7999999999999829
 30
0
 11
167.7450000000000045
 21
-136.7999999999999829
 31
0
  0
LINE
  5
AC
330
1A
100
AcDbEntity
  8
Plate.Cuts
  6
CONTINUOUS
100
AcDbLine
 10
166.5449999999999875
 20
-139.7999999999999829
 30
0
 11
166.5449999999999875
 21
-141.625
 31
0
  0
LINE
  5
AD
330
1A
100
AcDbEntity
  8
Plate.Cuts
  6
CONTINUOUS
100
AcDbLine
 10
166.5449999999999875
 20
-141.625
 30
0
 11
165.7450000000000045
 21
-141.625
 31
0
  0
LINE
  5
AE
330
1A
100
AcDbEntity
  8
Plate.Cuts
  6
CONTINUOUS
100
AcDbLine
 10
166.5449999999999875
 20
-158.7750000000000057
 30
0
 11
166.5449999999999875
 21
-160.5999999999999943
 31
0
  0
LINE
  5
AF
330
1A
100
AcDbEntity
  8
Plate.Cuts
  6
CONTINUOUS
100
AcDbLine
 10
166.5449999999999875
 20
-160.5999999999999943
 30
0
 11
167.7450000000000045
 21
-160.5999999999999943
 31
0
  0
LINE
  5
B0
330
1A
100
AcDbEntity
  8
Plate.Cuts
  6
CONTINUOUS
100
AcDbLine
 10
166.5449999999999875
 20
-163.5999999999999943
 30
0
 11
166.5449999999999875
 21
-165.4249999999999829
 31
0
  0
LINE
  5
B1
330
1A
100
AcDbEntity
  8
Plate.Cuts
  6
CONTINUOUS
100
AcDbLine
 10
166.5449999999999875
 20
-165.4249999999999829
 30
0
 11
160.2750000000000057
 21
-165.4249999999999829
 31
0
  0
LINE
  5
B2
330
1A
100
AcDbEntity
  8
Plate.Cuts
  6
CONTINUOUS
100
AcDbLine
 10
166.7750000000000057
 20
-76.5249999999999915
 30
0
 11
166.7750000000000057
 21
-90.5249999999999915
 31
0
  0
LINE
  5
B3
330
1A
100
AcDbEntity
  8
Plate.Cuts
  6
CONTINUOUS
100
AcDbLine
 10
166.7750000000000057
 20
-90.5249999999999915
 30
0
 11
152.7750000000000057
 21
-90.5249999999999915
 31
0
  0
LINE
  5
B4
330
1A
100
AcDbEntity
  8
Plate.Cuts
  6
CONTINUOUS
100
AcDbLine
 10
166.7750000000000057
 20
-95.5749999999999886
 30
0
 11
166.7750000000000057
 21
-109.5749999999999886
 31
0
  0
LINE
  5
B5
330
1A
100
AcDbEntity
  8
Plate.Cuts
  6
CONTINUOUS
100
AcDbLine
 10
166.7750000000000057
 20
-109.5749999999999886
 30
0
 11
152.7750000000000057
 21
-109.5749999999999886
 31
0
  0
LINE
  5
B6
330
1A
100
AcDbEntity
  8
Plate.Cuts
  6
CONTINUOUS
100
AcDbLine
 10
166.7750000000000057
 20
-114.625
 30
0
 11
166.7750000000000057
 21
-128.625
 31
0
  0
LINE
  5
B7
330
1A
100
AcDbEntity
  8
Plate.Cuts
  6
CONTINUOUS
100
AcDbLine
 10
166.7750000000000057
 20
-128.625
 30
0
 11
152.7750000000000057
 21
-128.625
 31
0
  0
LINE
  5
B8
330
1A
100
AcDbEntity
  8
Plate.Cuts
  6
CONTINUOUS
100
AcDbLine
 10
166.7750000000000057
 20
-143.1999999999999886
 30
0
 11
166.7750000000000057
 21
-157.1999999999999886
 31
0
  0
LINE
  5
B9
330
1A
100
AcDbEntity
  8
Plate.Cuts
  6
CONTINUOUS
100
AcDbLine
 10
166.7750000000000057
 20
-157.1999999999999886
 30
0
 11
165.7450000000000045
 21
-157.1999999999999886
 31
0
  0
LINE
  5
BA
330
1A
100
AcDbEntity
  8
Plate.Cuts
  6
CONTINUOUS
100
AcDbLine
 10
167.7450000000000045
 20
-136.7999999999999829
 30
0
 11
167.7450000000000045
 21
-139.7999999999999829
 31
0
  0
LINE
  5
BB
330
1A
100
AcDbEntity
  8
Plate.Cuts
  6
CONTINUOUS
100
AcDbLine
 10
167.7450000000000045
 20
-139.7999999999999829
 30
0
 11
166.5449999999999875
 21
-139.7999999999999829
 31
0
  0
LINE
  5
BC
330
1A
100
AcDbEntity
  8
Plate.Cuts
  6
CONTINUOUS
100
AcDbLine
 10
167.7450000000000045
 20
-160.5999999999999943
 30
0
 11
167.7450000000000045
 21
-163.5999999999999943
 31
0
  0
LINE
  5
BD
330
1A
100
AcDbEntity
  8
Plate.Cuts
  6
CONTINUOUS
100
AcDbLine
 10
167.7450000000000045
 20
-163.5999999999999943
 30
0
 11
166.5449999999999875
 21
-163.5999999999999943
 31
0
  0
LINE
  5
BE
330
1A
100
AcDbEntity
  8
Plate.Cuts
  6
CONTINUOUS
100
AcDbLine
 10
171.8249999999999886
 20
-76.5249999999999915
 30
0
 11
185.8249999999999886
 21
-76.5249999999999915
 31
0
  0
LINE
  5
BF
330
1A
100
AcDbEntity
  8
Plate.Cuts
  6
CONTINUOUS
100
AcDbLine
 10
171.8249999999999886
 20
-90.5249999999999915
 30
0
 11
171.8249999999999886
 21
-76.5249999999999915
 31
0
  0
LINE
  5
C0
330
1A
100
AcDbEntity
  8
Plate.Cuts
  6
CONTINUOUS
100
AcDbLine
 10
171.8249999999999886
 20
-95.5749999999999886
 30
0
 11
185.8249999999999886
 21
-95.5749999999999886
 31
0
  0
LINE
  5
C1
330
1A
100
AcDbEntity
  8
Plate.Cuts
  6
CONTINUOUS
100
AcDbLine
 10
171.8249999999999886
 20
-109.5749999999999886
 30
0
 11
171.8249999999999886
 21
-95.5749999999999886
 31
0
  0
LINE
  5
C2
330
1A
100
AcDbEntity
  8
Plate.Cuts
  6
CONTINUOUS
100
AcDbLine
 10
171.8249999999999886
 20
-114.625
 30
0
 11
185.8249999999999886
 21
-114.625
 31
0
  0
LINE
  5
C3
330
1A
100
AcDbEntity
  8
Plate.Cuts
  6
CONTINUOUS
100
AcDbLine
 10
171.8249999999999886
 20
-128.625
 30
0
 11
171.8249999999999886
 21
-114.625
 31
0
  0
LINE
  5
C4
330
1A
100
AcDbEntity
  8
Plate.Cuts
  6
CONTINUOUS
100
AcDbLine
 10
171.8249999999999886
 20
-133.6749999999999829
 30
0
 11
185.8249999999999886
 21
-133.6749999999999829
 31
0
  0
LINE
  5
C5
330
1A
100
AcDbEntity
  8
Plate.Cuts
  6
CONTINUOUS
100
AcDbLine
 10
171.8249999999999886
 20
-147.6749999999999829
 30
0
 11
171.8249999999999886
 21
-133.6749999999999829
 31
0
  0
LINE
  5
C6
330
1A
100
AcDbEntity
  8
Plate.Cuts
  6
CONTINUOUS
100
AcDbLine
 10
171.8249999999999886
 20
-152.7249999999999943
 30
0
 11
185.8249999999999886
 21
-152.7249999999999943
 31
0
  0
LINE
  5
C7
330
1A
100
AcDbEntity
  8
Plate.Cuts
  6
CONTINUOUS
100
AcDbLine
 10
171.8249999999999886
 20
-166.7249999999999943
 30
0
 11
171.8249999999999886
 21
-152.7249999999999943
 31
0
  0
LINE
  5
C8
330
1A
100
AcDbEntity
  8
Plate.Cuts
  6
CONTINUOUS
100
AcDbLine
 10
185.8249999999999886
 20
-76.5249999999999915
 30
0
 11
185.8249999999999886
 21
-90.5249999999999915
 31
0
  0
LINE
  5
C9
330
1A
100
AcDbEntity
  8
Plate.Cuts
  6
CONTINUOUS
100
AcDbLine
 10
185.8249999999999886
 20
-90.5249999999999915
 30
0
 11
171.8249999999999886
 21
-90.5249999999999915
 31
0
  0
LINE
  5
CA
330
1A
100
AcDbEntity
  8
Plate.Cuts
  6
CONTINUOUS
100
AcDbLine
 10
185.8249999999999886
 20
-95.5749999999999886
 30
0
 11
185.8249999999999886
 21
-109.5749999999999886
 31
0
  0
LINE
  5
CB
330
1A
100
AcDbEntity
  8
Plate.Cuts
  6
CONTINUOUS
100
AcDbLine
 10
185.8249999999999886
 20
-109.5749999999999886
 30
0
 11
171.8249999999999886
 21
-109.5749999999999886
 31
0
  0
LINE
  5
CC
330
1A
100
AcDbEntity
  8
Plate.Cuts
  6
CONTINUOUS
100
AcDbLine
 10
185.8249999999999886
 20
-114.625
 30
0
 11
185.8249999999999886
 21
-128.625
 31
0
  0
LINE
  5
CD
330
1A
100
AcDbEntity
  8
Plate.Cuts
  6
CONTINUOUS
100
AcDbLine
 10
185.8249999999999886
 20
-128.625
 30
0
 11
171.8249999999999886
 21
-128.625
 31
0
  0
LINE
  5
CE
330
1A
100
AcDbEntity
  8
Plate.Cuts
  6
CONTINUOUS
100
AcDbLine
 10
185.8249999999999886
 20
-133.6749999999999829
 30
0
 11
185.8249999999999886
 21
-147.6749999999999829
 31
0
  0
LINE
  5
CF
330
1A
100
AcDbEntity
  8
Plate.Cuts
  6
CONTINUOUS
100
AcDbLine
 10
185.8249999999999886
 20
-147.6749999999999829
 30
0
 11
171.8249999999999886
 21
-147.6749999999999829
 31
0
  0
LINE
  5
D0
330
1A
100
AcDbEntity
  8
Plate.Cuts
  6
CONTINUOUS
100
AcDbLine
 10
185.8249999999999886
 20
-152.7249999999999943
 30
0
 11
185.8249999999999886
 21
-166.7249999999999943
 31
0
  0
LINE
  5
D1
330
1A
100
AcDbEntity
  8
Plate.Cuts
  6
CONTINUOUS
100
AcDbLine
 10
185.8249999999999886
 20
-166.7249999999999943
 30
0
 11
171.8249999999999886
 21
-166.7249999999999943
 31
0
  0
LINE
  5
D2
330
1A
100
AcDbEntity
  8
Plate.Cuts
  6
CONTINUOUS
100
AcDbLine
 10
190.875
 20
-76.5249999999999915
 30
0
 11
204.875
 21
-76.5249999999999915
 31
0
  0
LINE
  5
D3
330
1A
100
AcDbEntity
  8
Plate.Cuts
  6
CONTINUOUS
100
AcDbLine
 10
190.875
 20
-90.5249999999999915
 30
0
 11
190.875
 21
-76.5249999999999915
 31
0
  0
LINE
  5
D4
330
1A
100
AcDbEntity
  8
Plate.Cuts
  6
CONTINUOUS
100
AcDbLine
 10
190.875
 20
-95.5749999999999886
 30
0
 11
204.875
 21
-95.5749999999999886
 31
0
  0
LINE
  5
D5
330
1A
100
AcDbEntity
  8
Plate.Cuts
  6
CONTINUOUS
100
AcDbLine
 10
190.875
 20
-109.5749999999999886
 30
0
 11
190.875
 21
-95.5749999999999886
 31
0
  0
LINE
  5
D6
330
1A
100
AcDbEntity
  8
Plate.Cuts
  6
CONTINUOUS
100
AcDbLine
 10
190.875
 20
-114.625
 30
0
 11
204.875
 21
-114.625
 31
0
  0
LINE
  5
D7
330
1A
100
AcDbEntity
  8
Plate.Cuts
  6
CONTINUOUS
100
AcDbLine
 10
190.875
 20
-128.625
 30
0
 11
190.875
 21
-114.625
 31
0
  0
LINE
  5
D8
330
1A
100
AcDbEntity
  8
Plate.Cuts
  6
CONTINUOUS
100
AcDbLine
 10
190.875
 20
-133.6749999999999829
 30
0
 11
204.875
 21
-133.6749999999999829
 31
0
  0
LINE
  5
D9
330
1A
100
AcDbEntity
  8
Plate.Cuts
  6
CONTINUOUS
100
AcDbLine
 10
190.875
 20
-147.6749999999999829
 30
0
 11
190.875
 21
-133.6749999999999829
 31
0
  0
LINE
  5
DA
330
1A
100
AcDbEntity
  8
Plate.Cuts
  6
CONTINUOUS
100
AcDbLine
 10
190.875
 20
-152.7249999999999943
 30
0
 11
204.875
 21
-152.7249999999999943
 31
0
  0
LINE
  5
DB
330
1A
100
AcDbEntity
  8
Plate.Cuts
  6
CONTINUOUS
100
AcDbLine
 10
190.875
 20
-166.7249999999999943
 30
0
 11
190.875
 21
-152.7249999999999943
 31
0
  0
LINE
  5
DC
330
1A
100
AcDbEntity
  8
Plate.Cuts
  6
CONTINUOUS
100
AcDbLine
 10
204.875
 20
-76.5249999999999915
 30
0
 11
204.875
 21
-90.5249999999999915
 31
0
  0
LINE
  5
DD
330
1A
100
AcDbEntity
  8
Plate.Cuts
  6
CONTINUOUS
100
AcDbLine
 10
204.875
 20
-90.5249999999999915
 30
0
 11
190.875
 21
-90.5249999999999915
 31
0
  0
LINE
  5
DE
330
1A
100
AcDbEntity
  8
Plate.Cuts
  6
CONTINUOUS
100
AcDbLine
 10
204.875
 20
-95.5749999999999886
 30
0
 11
204.875
 21
-109.5749999999999886
 31
0
  0
LINE
  5
DF
330
1A
100
AcDbEntity
  8
Plate.Cuts
  6
CONTINUOUS
100
AcDbLine
 10
204.875
 20
-109.5749999999999886
 30
0
 11
190.875
 21
-109.5749999999999886
 31
0
  0
LINE
  5
E0
330
1A
100
AcDbEntity
  8
Plate.Cuts
  6
CONTINUOUS
100
AcDbLine
 10
204.875
 20
-114.625
 30
0
 11
204.875
 21
-128.625
 31
0
  0
LINE
  5
E1
330
1A
100
AcDbEntity
  8
Plate.Cuts
  6
CONTINUOUS
100
AcDbLine
 10
204.875
 20
-128.625
 30
0
 11
190.875
 21
-128.625
 31
0
  0
LINE
  5
E2
330
1A
100
AcDbEntity
  8
Plate.Cuts
  6
CONTINUOUS
100
AcDbLine
 10
204.875
 20
-133.6749999999999829
 30
0
 11
204.875
 21
-147.6749999999999829
 31
0
  0
LINE
  5
E3
330
1A
100
AcDbEntity
  8
Plate.Cuts
  6
CONTINUOUS
100
AcDbLine
 10
204.875
 20
-147.6749999999999829
 30
0
 11
190.875
 21
-147.6749999999999829
 31
0
  0
LINE
  5
E4
330
1A
100
AcDbEntity
  8
Plate.Cuts
  6
CONTINUOUS
100
AcDbLine
 10
204.875
 20
-152.7249999999999943
 30
0
 11
204.875
 21
-166.7249999999999943
 31
0
  0
LINE
  5
E5
330
1A
100
AcDbEntity
  8
Plate.Cuts
  6
CONTINUOUS
100
AcDbLine
 10
204.875
 20
-166.7249999999999943
 30
0
 11
190.875
 21
-166.7249999999999943
 31
0
  0
LINE
  5
E6
330
1A
100
AcDbEntity
  8
Plate.Cuts
  6
CONTINUOUS
100
AcDbLine
 10
209.9249999999999829
 20
-76.5249999999999915
 30
0
 11
223.9249999999999829
 21
-76.5249999999999915
 31
0
  0
LINE
  5
E7
330
1A
100
AcDbEntity
  8
Plate.Cuts
  6
CONTINUOUS
100
AcDbLine
 10
209.9249999999999829
 20
-90.5249999999999915
 30
0
 11
209.9249999999999829
 21
-76.5249999999999915
 31
0
  0
LINE
  5
E8
330
1A
100
AcDbEntity
  8
Plate.Cuts
  6
CONTINUOUS
100
AcDbLine
 10
209.9249999999999829
 20
-95.5749999999999886
 30
0
 11
223.9249999999999829
 21
-95.5749999999999886
 31
0
  0
LINE
  5
E9
330
1A
100
AcDbEntity
  8
Plate.Cuts
  6
CONTINUOUS
100
AcDbLine
 10
209.9249999999999829
 20
-109.5749999999999886
 30
0
 11
209.9249999999999829
 21
-95.5749999999999886
 31
0
  0
LINE
  5
EA
330
1A
100
AcDbEntity
  8
Plate.Cuts
  6
CONTINUOUS
100
AcDbLine
 10
209.9249999999999829
 20
-114.625
 30
0
 11
223.9249999999999829
 21
-114.625
 31
0
  0
LINE
  5
EB
330
1A
100
AcDbEntity
  8
Plate.Cuts
  6
CONTINUOUS
100
AcDbLine
 10
209.9249999999999829
 20
-128.625
 30
0
 11
209.9249999999999829
 21
-114.625
 31
0
  0
LINE
  5
EC
330
1A
100
AcDbEntity
  8
Plate.Cuts
  6
CONTINUOUS
100
AcDbLine
 10
209.9249999999999829
 20
-133.6749999999999829
 30
0
 11
223.9249999999999829
 21
-133.6749999999999829
 31
0
  0
LINE
  5
ED
330
1A
100
AcDbEntity
  8
Plate.Cuts
  6
CONTINUOUS
100
AcDbLine
 10
209.9249999999999829
 20
-147.6749999999999829
 30
0
 11
209.9249999999999829
 21
-133.6749999999999829
 31
0
  0
LINE
  5
EE
330
1A
100
AcDbEntity
  8
Plate.Cuts
  6
CONTINUOUS
100
AcDbLine
 10
209.9249999999999829
 20
-152.7249999999999943
 30
0
 11
223.9249999999999829
 21
-152.7249999999999943
 31
0
  0
LINE
  5
EF
330
1A
100
AcDbEntity
  8
Plate.Cuts
  6
CONTINUOUS
100
AcDbLine
 10
209.9249999999999829
 20
-166.7249999999999943
 30
0
 11
209.9249999999999829
 21
-152.7249999999999943
 31
0
  0
LINE
  5
F0
330
1A
100
AcDbEntity
  8
Plate.Cuts
  6
CONTINUOUS
100
AcDbLine
 10
223.9249999999999829
 20
-76.5249999999999915
 30
0
 11
223.9249999999999829
 21
-90.5249999999999915
 31
0
  0
LINE
  5
F1
330
1A
100
AcDbEntity
  8
Plate.Cuts
  6
CONTINUOUS
100
AcDbLine
 10
223.9249999999999829
 20
-90.5249999999999915
 30
0
 11
209.9249999999999829
 21
-90.5249999999999915
 31
0
  0
LINE
  5
F2
330
1A
100
AcDbEntity
  8
Plate.Cuts
  6
CONTINUOUS
100
AcDbLine
 10
223.9249999999999829
 20
-95.5749999999999886
 30
0
 11
223.9249999999999829
 21
-109.5749999999999886
 31
0
  0
LINE
  5
F3
330
1A
100
AcDbEntity
  8
Plate.Cuts
  6
CONTINUOUS
100
AcDbLine
 10
223.9249999999999829
 20
-109.5749999999999886
 30
0
 11
209.9249999999999829
 21
-109.5749999999999886
 31
0
  0
LINE
  5
F4
330
1A
100
AcDbEntity
  8
Plate.Cuts
  6
CONTINUOUS
100
AcDbLine
 10
223.9249999999999829
 20
-114.625
 30
0
 11
223.9249999999999829
 21
-128.625
 31
0
  0
LINE
  5
F5
330
1A
100
AcDbEntity
  8
Plate.Cuts
  6
CONTINUOUS
100
AcDbLine
 10
223.9249999999999829
 20
-128.625
 30
0
 11
209.9249999999999829
 21
-128.625
 31
0
  0
LINE
  5
F6
330
1A
100
AcDbEntity
  8
Plate.Cuts
  6
CONTINUOUS
100
AcDbLine
 10
223.9249999999999829
 20
-133.6749999999999829
 30
0
 11
223.9249999999999829
 21
-147.6749999999999829
 31
0
  0
LINE
  5
F7
330
1A
100
AcDbEntity
  8
Plate.Cuts
  6
CONTINUOUS
100
AcDbLine
 10
223.9249999999999829
 20
-147.6749999999999829
 30
0
 11
209.9249999999999829
 21
-147.6749999999999829
 31
0
  0
LINE
  5
F8
330
1A
100
AcDbEntity
  8
Plate.Cuts
  6
CONTINUOUS
100
AcDbLine
 10
223.9249999999999829
 20
-152.7249999999999943
 30
0
 11
223.9249999999999829
 21
-166.7249999999999943
 31
0
  0
LINE
  5
F9
330
1A
100
AcDbEntity
  8
Plate.Cuts
  6
CONTINUOUS
100
AcDbLine
 10
223.9249999999999829
 20
-166.7249999999999943
 30
0
 11
209.9249999999999829
 21
-166.7249999999999943
 31
0
  0
LINE
  5
FA
330
1A
100
AcDbEntity
  8
Plate.Cuts
  6
CONTINUOUS
100
AcDbLine
 10
228.9749999999999943
 20
-76.5249999999999915
 30
0
 11
242.9749999999999943
 21
-76.5249999999999915
 31
0
  0
LINE
  5
FB
330
1A
100
AcDbEntity
  8
Plate.Cuts
  6
CONTINUOUS
100
AcDbLine
 10
228.9749999999999943
 20
-90.5249999999999915
 30
0
 11
228.9749999999999943
 21
-76.5249999999999915
 31
0
  0
LINE
  5
FC
330
1A
100
AcDbEntity
  8
Plate.Cuts
  6
CONTINUOUS
100
AcDbLine
 10
228.9749999999999943
 20
-95.5749999999999886
 30
0
 11
242.9749999999999943
 21
-95.5749999999999886
 31
0
  0
LINE
  5
FD
330
1A
100
AcDbEntity
  8
Plate.Cuts
  6
CONTINUOUS
100
AcDbLine
 10
228.9749999999999943
 20
-109.5749999999999886
 30
0
 11
228.9749999999999943
 21
-95.5749999999999886
 31
0
  0
LINE
  5
FE
330
1A
100
AcDbEntity
  8
Plate.Cuts
  6
CONTINUOUS
100
AcDbLine
 10
228.9749999999999943
 20
-114.625
 30
0
 11
242.9749999999999943
 21
-114.625
 31
0
  0
LINE
  5
FF
330
1A
100
AcDbEntity
  8
Plate.Cuts
  6
CONTINUOUS
100
AcDbLine
 10
228.9749999999999943
 20
-128.625
 30
0
 11
228.9749999999999943
 21
-114.625
 31
0
  0
LINE
  5
100
330
1A
100
AcDbEntity
  8
Plate.Cuts
  6
CONTINUOUS
100
AcDbLine
 10
228.9749999999999943
 20
-133.6749999999999829
 30
0
 11
242.9749999999999943
 21
-133.6749999999999829
 31
0
  0
LINE
  5
101
330
1A
100
AcDbEntity
  8
Plate.Cuts
  6
CONTINUOUS
100
AcDbLine
 10
228.9749999999999943
 20
-147.6749999999999829
 30
0
 11
228.9749999999999943
 21
-133.6749999999999829
 31
0
  0
LINE
  5
102
330
1A
100
AcDbEntity
  8
Plate.Cuts
  6
CONTINUOUS
100
AcDbLine
 10
228.9749999999999943
 20
-152.7249999999999943
 30
0
 11
242.9749999999999943
 21
-152.7249999999999943
 31
0
  0
LINE
  5
103
330
1A
100
AcDbEntity
  8
Plate.Cuts
  6
CONTINUOUS
100
AcDbLine
 10
228.9749999999999943
 20
-166.7249999999999943
 30
0
 11
228.9749999999999943
 21
-152.7249999999999943
 31
0
  0
LINE
  5
104
330
1A
100
AcDbEntity
  8
Plate.Cuts
  6
CONTINUOUS
100
AcDbLine
 10
242.9749999999999943
 20
-76.5249999999999915
 30
0
 11
242.9749999999999943
 21
-90.5249999999999915
 31
0
  0
LINE
  5
105
330
1A
100
AcDbEntity
  8
Plate.Cuts
  6
CONTINUOUS
100
AcDbLine
 10
242.9749999999999943
 20
-90.5249999999999915
 30
0
 11
228.9749999999999943
 21
-90.5249999999999915
 31
0
  0
LINE
  5
106
330
1A
100
AcDbEntity
  8
Plate.Cuts
  6
CONTINUOUS
100
AcDbLine
 10
242.9749999999999943
 20
-95.5749999999999886
 30
0
 11
242.9749999999999943
 21
-109.5749999999999886
 31
0
  0
LINE
  5
107
330
1A
100
AcDbEntity
  8
Plate.Cuts
  6
CONTINUOUS
100
AcDbLine
 10
242.9749999999999943
 20
-109.5749999999999886
 30
0
 11
228.9749999999999943
 21
-109.5749999999999886
 31
0
  0
LINE
  5
108
330
1A
100
AcDbEntity
  8
Plate.Cuts
  6
CONTINUOUS
100
AcDbLine
 10
242.9749999999999943
 20
-114.625
 30
0
 11
242.9749999999999943
 21
-128.625
 31
0
  0
LINE
  5
109
330
1A
100
AcDbEntity
  8
Plate.Cuts
  6
CONTINUOUS
100
AcDbLine
 10
242.9749999999999943
 20
-128.625
 30
0
 11
228.9749999999999943
 21
-128.625
 31
0
  0
LINE
  5
10A
330
1A
100
AcDbEntity
  8
Plate.Cuts
  6
CONTINUOUS
100
AcDbLine
 10
242.9749999999999943
 20
-133.6749999999999829
 30
0
 11
242.9749999999999943
 21
-147.6749999999999829
 31
0
  0
LINE
  5
10B
330
1A
100
AcDbEntity
  8
Plate.Cuts
  6
CONTINUOUS
100
AcDbLine
 10
242.9749999999999943
 20
-147.6749999999999829
 30
0
 11
228.9749999999999943
 21
-147.6749999999999829
 31
0
  0
LINE
  5
10C
330
1A
100
AcDbEntity
  8
Plate.Cuts
  6
CONTINUOUS
100
AcDbLine
 10
242.9749999999999943
 20
-152.7249999999999943
 30
0
 11
242.9749999999999943
 21
-166.7249999999999943
 31
0
  0
LINE
  5
10D
330
1A
100
AcDbEntity
  8
Plate.Cuts
  6
CONTINUOUS
100
AcDbLine
 10
242.9749999999999943
 20
-166.7249999999999943
 30
0
 11
228.9749999999999943
 21
-166.7249999999999943
 31
0
  0
LINE
  5
10E
330
1A
100
AcDbEntity
  8
Plate.Cuts
  6
CONTINUOUS
100
AcDbLine
 10
250.5
 20
-69.
 30
0
 11
250.5
 21
-174.25
 31
0
  0
LINE
  5
10F
330
1A
100
AcDbEntity
  8
Plate.Cuts
  6
CONTINUOUS
100
AcDbLine
 10
250.5
 20
-174.25
 30
0
 11
50.
 21
-174.25
 31
0
  0
ENDSEC
  0
SECTION
  2
OBJECTS
  0
DICTIONARY
  5
20
330
0
100
AcDbDictionary
281
1
  3
ACAD_GROUP
350
110
  3
ACAD_LAYOUT
350
21
  3
ACAD_PLOTSTYLENAME
350
11
  0
DICTIONARY
  5
110
330
20
100
AcDbDictionary
281
1
  0
ACDBDICTIONARYWDFLT
  5
11
330
20
100
AcDbDictionary
281
1
  3
Normal
350
10
100
AcDbDictionaryWithDefault
340
10
  0
ACDBPLACEHOLDER
  5
10
330
11
  0
DICTIONARY
  5
21
330
20
100
AcDbDictionary
281
1
  3
Model
350
1D
  3
Layout1
350
1E
  3
Layout2
350
1F
  0
LAYOUT
  5
1D
330
21
100
AcDbPlotSettings
  1

  2
none_device
  4
A3
  6

 40
0.0
 41
0.0
 42
0.0
 43
0.0
 44
420.0
 45
297.0
 46
0.0
 47
0.0
 48
0.0
 49
0.0
140
0.0
141
0.0
142
1.0
143
1.0
 70
1024
 72
1
 73
0
 74
5
  7

 75
16
 76
0
 77
2
 78
300
147
1.0
148
0.0
149
0.0
100
AcDbLayout
  1
Model
 70
1
 71
0
 10
0.0
 20
0.0
 11
420.0
 21
297.0
 12
0.0
 22
0.0
 32
0.0
 14
1e+20
 24
1e+20
 34
1e+20
 15
-1e+20
 25
-1e+20
 35
-1e+20
146
0.0
 13
0.0
 23
0.0
 33
0.0
 16
1.0
 26
0.0
 36
0.0
 17
0.0
 27
1.0
 37
0.0
 76
0
330
1A
  0
LAYOUT
  5
1E
330
21
100
AcDbPlotSettings
  1

  2
none_device
  4
A3
  6

 40
0.0
 41
0.0
 42
0.0
 43
0.0
 44
420.0
 45
297.0
 46
0.0
 47
0.0
 48
0.0
 49
0.0
140
0.0
141
0.0
142
1.0
143
1.0
 70
0
 72
1
 73
0
 74
5
  7

 75
16
 76
0
 77
2
 78
300
147
1.0
148
0.0
149
0.0
100
AcDbLayout
  1
Layout1
 70
1
 71
1
 10
0.0
 20
0.0
 11
420.0
 21
297.0
 12
0.0
 22
0.0
 32
0.0
 14
1e+20
 24
1e+20
 34
1e+20
 15
-1e+20
 25
-1e+20
 35
-1e+20
146
0.0
 13
0.0
 23
0.0
 33
0.0
 16
1.0
 26
0.0
 36
0.0
 17
0.0
 27
1.0
 37
0.0
 76
0
330
1B
  0
LAYOUT
  5
1F
330
21
100
AcDbPlotSettings
  1

  2
none_device
  4
A3
  6

 40
0.0
 41
0.0
 42
0.0
 43
0.0
 44
420.0
 45
297.0
 46
0.0
 47
0.0
 48
0.0
 49
0.0
140
0.0
141
0.0
142
1.0
143
1.0
 70
0
 72
1
 73
0
 74
5
  7

 75
16
 76
0
 77
2
 78
300
147
1.0
148
0.0
149
0.0
100
AcDbLayout
  1
Layout2
 70
1
 71
2
 10
0.0
 20
0.0
 11
420.0
 21
297.0
 12
0.0
 22
0.0
 32
0.0
 14
1e+20
 24
1e+20
 34
1e+20
 15
-1e+20
 25
-1e+20
 35
-1e+20
146
0.0
 13
0.0
 23
0.0
 33
0.0
 16
1.0
 26
0.0
 36
0.0
 17
0.0
 27
1.0
 37
0.0
 76
0
330
1C
  0
ENDSEC
  0
EOF
